<svg width="24" height="24" xmlns="http://www.w3.org/2000/svg"><defs><linearGradient x1="50%" y1="0%" x2="65.078%" y2="100%" id="a"><stop stop-color="#70747A" offset="0%"/><stop stop-color="#393E48" offset="100%"/></linearGradient></defs><g fill="none" fill-rule="evenodd"><rect width="24" height="24" rx="2"/><path d="M15.5 4a.5.5 0 0 1 .5.5v1.999l1.462.001H20v1.25l-2.093-.001-.873 11.788a.5.5 0 0 1-.498.463H7.464a.5.5 0 0 1-.498-.463L6.092 7.749 4 7.75V6.5l2.501.001a.5.5 0 0 1 .037-.001L8 6.499V4.5a.5.5 0 0 1 .5-.5h7Zm-2.85 6H11.4v6h1.25v-6Z" fill="url(#a)"/></g></svg>