<svg width="24" height="24" xmlns="http://www.w3.org/2000/svg"><g fill="none" fill-rule="evenodd"><rect width="24" height="24" rx="2"/><path d="m12.526 4.2 6.67 5.903c.511.453.804 1.102.804 1.784v8.319a.794.794 0 0 1-.794.794H13.6v-3.109a1.6 1.6 0 0 0-3.193-.145l-.007.145V21H4.794A.794.794 0 0 1 4 20.206v-8.319c0-.682.293-1.331.803-1.784l6.67-5.903a.794.794 0 0 1 1.053 0ZM12 5.305l-6.417 5.68c-.226.2-.368.476-.4.774l-.007.128v7.936h4.047l.002-1.985.01-.198a2.777 2.777 0 0 1 5.536.082l.005.17v1.931h4.047v-7.936c0-.302-.113-.591-.314-.812l-.092-.09L12 5.304Z" fill="#464D5A" fill-rule="nonzero"/></g></svg>