<?xml version="1.0" standalone="no"?><!DOCTYPE svg PUBLIC "-//W3C//DTD SVG 1.1//EN" "http://www.w3.org/Graphics/SVG/1.1/DTD/svg11.dtd"><svg t="1649605183576" class="icon" viewBox="0 0 1024 1024" version="1.1" xmlns="http://www.w3.org/2000/svg" p-id="5597" width="20" height="20" xmlns:xlink="http://www.w3.org/1999/xlink"><defs><style type="text/css">@font-face { font-family: feedback-iconfont; src: url("//at.alicdn.com/t/font_1031158_u69w8yhxdu.woff2?t=1630033759944") format("woff2"), url("//at.alicdn.com/t/font_1031158_u69w8yhxdu.woff?t=1630033759944") format("woff"), url("//at.alicdn.com/t/font_1031158_u69w8yhxdu.ttf?t=1630033759944") format("truetype"); }
</style></defs><path d="M842.666667 384h-74.666667V277.333333a234.666667 234.666667 0 1 0-469.333333 0v106.666667H224a53.393333 53.393333 0 0 0-53.333333 53.333333v490.666667a53.393333 53.393333 0 0 0 53.333333 53.333333h618.666667a53.393333 53.393333 0 0 0 53.333333-53.333333V437.333333a53.393333 53.393333 0 0 0-53.333333-53.333333zM341.333333 277.333333c0-105.866667 86.133333-192 192-192s192 86.133333 192 192v106.666667H341.333333z m512 650.666667a10.666667 10.666667 0 0 1-10.666666 10.666667H224a10.666667 10.666667 0 0 1-10.666667-10.666667V437.333333a10.666667 10.666667 0 0 1 10.666667-10.666666h618.666667a10.666667 10.666667 0 0 1 10.666666 10.666666zM533.333333 554.666667a64 64 0 0 0-21.333333 124.34V789.333333a21.333333 21.333333 0 0 0 42.666667 0v-110.326666A64 64 0 0 0 533.333333 554.666667z m0 85.333333a21.333333 21.333333 0 1 1 21.333334-21.333333 21.333333 21.333333 0 0 1-21.333334 21.333333z" fill="#5C5C66" p-id="5598"></path></svg>