<svg width="36" height="36" xmlns="http://www.w3.org/2000/svg" xmlns:xlink="http://www.w3.org/1999/xlink"><defs><path d="M1.35 0h19.3C21.396 0 22 .604 22 1.35v19.3A1.35 1.35 0 0 1 20.65 22H1.35A1.35 1.35 0 0 1 0 20.65V1.35C0 .604.604 0 1.35 0Z" id="a"/><path d="m3.583 2 4.792 4.791V3.875h2.25v6.75h-6.75v-2.25h2.916L2 3.583 3.583 2Z" id="d"/><linearGradient x1="100%" y1="0%" x2="0%" y2="100%" id="b"><stop stop-color="#81868F" offset="0%"/><stop stop-color="#464D5A" offset="100%"/></linearGradient><filter x="-23.2%" y="-34.8%" width="146.4%" height="146.4%" filterUnits="objectBoundingBox" id="c"><feOffset dy="-1" in="SourceAlpha" result="shadowOffsetOuter1"/><feGaussianBlur stdDeviation=".5" in="shadowOffsetOuter1" result="shadowBlurOuter1"/><feColorMatrix values="0 0 0 0 0 0 0 0 0 0 0 0 0 0 0 0 0 0 0.08 0" in="shadowBlurOuter1"/></filter></defs><g fill="none" fill-rule="evenodd"><use fill="url(#b)" opacity=".88" xlink:href="#a" transform="translate(7.5 6.75)"/><g transform="rotate(-135 15.022 9.661)"><use fill="#000" filter="url(#c)" xlink:href="#d"/><use fill="#D7E1F4" xlink:href="#d"/></g></g></svg>