<?xml version="1.0" standalone="no"?><!DOCTYPE svg PUBLIC "-//W3C//DTD SVG 1.1//EN" "http://www.w3.org/Graphics/SVG/1.1/DTD/svg11.dtd"><svg t="1649597726677" class="icon" viewBox="0 0 1024 1024" version="1.1" xmlns="http://www.w3.org/2000/svg" p-id="3645" width="20" height="20" xmlns:xlink="http://www.w3.org/1999/xlink"><defs><style type="text/css">@font-face { font-family: feedback-iconfont; src: url("//at.alicdn.com/t/font_1031158_u69w8yhxdu.woff2?t=1630033759944") format("woff2"), url("//at.alicdn.com/t/font_1031158_u69w8yhxdu.woff?t=1630033759944") format("woff"), url("//at.alicdn.com/t/font_1031158_u69w8yhxdu.ttf?t=1630033759944") format("truetype"); }
</style></defs><path d="M959.99612 959.99836H64.00004V64.00228h594.045401V0.00256H45.76012A45.311802 45.311802 0 0 0 0.00032 44.802364v934.395912a45.311802 45.311802 0 0 0 45.7598 44.799804h932.47592a45.311802 45.311802 0 0 0 45.7598-44.799804V376.000915h-63.99972z" fill="#575869" p-id="3646"></path><path d="M190.527486 351.425023h191.99916v63.99972h-191.99916zM190.527486 608.575897h516.349741v63.99972H190.527486zM584.701762 439.296638a31.99986 31.99986 0 0 0 45.247802 0l384.638317-384.638317a31.99986 31.99986 0 0 0-45.183802-45.247802l-384.638317 384.638317a31.99986 31.99986 0 0 0 0 45.247802z" fill="#575869" p-id="3647"></path></svg>