<svg width="24" height="24" viewBox="0 0 24 24" fill="none" xmlns="http://www.w3.org/2000/svg">
<path fill-rule="evenodd" clip-rule="evenodd" d="M8.94064 9.49167L12.1134 4.87357C12.2024 4.74403 12.3796 4.71117 12.5091 4.80016C12.5379 4.81992 12.5628 4.8448 12.5825 4.87357L15.7553 9.49167C15.8443 9.6212 15.8115 9.79835 15.6819 9.88734C15.6345 9.91992 15.5783 9.93736 15.5208 9.93736H9.17518C9.01803 9.93736 8.89062 9.80996 8.89062 9.6528C8.89062 9.59527 8.90806 9.53909 8.94064 9.49167ZM11.0832 4.16573L7.91037 8.78383C7.73467 9.03956 7.64062 9.34254 7.64062 9.6528C7.64062 10.5003 8.32767 11.1874 9.17518 11.1874H15.5208C15.8311 11.1874 16.134 11.0933 16.3898 10.9176C17.0883 10.4377 17.2655 9.48237 16.7856 8.78383L13.6128 4.16573C13.5062 4.01063 13.3721 3.87645 13.217 3.76989C12.5184 3.28997 11.5631 3.46719 11.0832 4.16573ZM20.3374 12.4137V20.0173C20.3374 20.2841 20.1265 20.5004 19.8664 20.5004H12.2878C12.0277 20.5004 11.8168 20.2841 11.8168 20.0173C11.8168 19.8952 11.8619 19.7776 11.943 19.6882C12.0647 19.5541 12.1796 19.4201 12.2878 19.2862L12.3162 19.2509C13.159 18.1958 13.5808 17.1479 13.5808 16.1081C13.5808 15.1006 13.1469 14.1343 12.2792 13.2091L12.2552 13.1837L12.2482 13.1763C12.1423 13.0648 12.0301 12.9539 11.9116 12.8437C11.7189 12.6644 11.7244 12.3153 11.8992 12.1177C11.9874 12.0179 12.1123 11.9604 12.2437 11.9592L19.862 11.9307C20.1048 11.9284 20.3064 12.1149 20.3341 12.3567L20.3374 12.4137ZM13.8786 13.2031C14.4843 14.0833 14.8308 15.0528 14.8308 16.1081C14.8308 17.2124 14.4755 18.2619 13.8507 19.2504H19.0874V13.1836L13.8786 13.2031ZM7.81141 13.3564C6.19609 13.3564 4.90039 14.6518 4.90039 16.2329C4.90039 17.814 6.19609 19.1093 7.81141 19.1093C9.42674 19.1093 10.7224 17.814 10.7224 16.2329C10.7224 14.6518 9.42674 13.3564 7.81141 13.3564ZM3.65039 16.2329C3.65039 13.9501 5.51707 12.1064 7.81141 12.1064C10.1057 12.1064 11.9724 13.9501 11.9724 16.2329C11.9724 18.5156 10.1057 20.3593 7.81141 20.3593C5.51707 20.3593 3.65039 18.5156 3.65039 16.2329Z" fill="#454D5A"/>
<path fill-rule="evenodd" clip-rule="evenodd" d="M8.94064 9.49167L12.1134 4.87357C12.2024 4.74403 12.3796 4.71117 12.5091 4.80016C12.5379 4.81992 12.5628 4.8448 12.5825 4.87357L15.7553 9.49167C15.8443 9.6212 15.8115 9.79835 15.6819 9.88734C15.6345 9.91992 15.5783 9.93736 15.5208 9.93736H9.17518C9.01803 9.93736 8.89062 9.80996 8.89062 9.6528C8.89062 9.59527 8.90806 9.53909 8.94064 9.49167ZM11.0832 4.16573L7.91037 8.78383C7.73467 9.03956 7.64062 9.34254 7.64062 9.6528C7.64062 10.5003 8.32767 11.1874 9.17518 11.1874H15.5208C15.8311 11.1874 16.134 11.0933 16.3898 10.9176C17.0883 10.4377 17.2655 9.48237 16.7856 8.78383L13.6128 4.16573C13.5062 4.01063 13.3721 3.87645 13.217 3.76989C12.5184 3.28997 11.5631 3.46719 11.0832 4.16573ZM20.3374 12.4137V20.0173C20.3374 20.2841 20.1265 20.5004 19.8664 20.5004H12.2878C12.0277 20.5004 11.8168 20.2841 11.8168 20.0173C11.8168 19.8952 11.8619 19.7776 11.943 19.6882C12.0647 19.5541 12.1796 19.4201 12.2878 19.2862L12.3162 19.2509C13.159 18.1958 13.5808 17.1479 13.5808 16.1081C13.5808 15.1006 13.1469 14.1343 12.2792 13.2091L12.2552 13.1837L12.2482 13.1763C12.1423 13.0648 12.0301 12.9539 11.9116 12.8437C11.7189 12.6644 11.7244 12.3153 11.8992 12.1177C11.9874 12.0179 12.1123 11.9604 12.2437 11.9592L19.862 11.9307C20.1048 11.9284 20.3064 12.1149 20.3341 12.3567L20.3374 12.4137ZM13.8786 13.2031C14.4843 14.0833 14.8308 15.0528 14.8308 16.1081C14.8308 17.2124 14.4755 18.2619 13.8507 19.2504H19.0874V13.1836L13.8786 13.2031ZM7.81141 13.3564C6.19609 13.3564 4.90039 14.6518 4.90039 16.2329C4.90039 17.814 6.19609 19.1093 7.81141 19.1093C9.42674 19.1093 10.7224 17.814 10.7224 16.2329C10.7224 14.6518 9.42674 13.3564 7.81141 13.3564ZM3.65039 16.2329C3.65039 13.9501 5.51707 12.1064 7.81141 12.1064C10.1057 12.1064 11.9724 13.9501 11.9724 16.2329C11.9724 18.5156 10.1057 20.3593 7.81141 20.3593C5.51707 20.3593 3.65039 18.5156 3.65039 16.2329Z" fill="url(#paint0_linear_818_72273)"/>
<defs>
<linearGradient id="paint0_linear_818_72273" x1="11.9939" y1="-5.00021" x2="-5.00359" y2="11.6839" gradientUnits="userSpaceOnUse">
<stop stop-color="#81868F"/>
<stop offset="1" stop-color="#464D5A"/>
</linearGradient>
</defs>
</svg>
