<svg width="24" height="24" xmlns="http://www.w3.org/2000/svg"><defs><linearGradient x1="50%" y1="0%" x2="63.356%" y2="100%" id="a"><stop stop-color="#70747A" offset="0%"/><stop stop-color="#393E48" offset="100%"/></linearGradient></defs><g fill="none" fill-rule="evenodd"><rect width="24" height="24" rx="2"/><path d="m12.526 3.7 6.67 5.903c.511.453.804 1.102.804 1.784v8.319a.794.794 0 0 1-.794.794H13.6v-3.109a1.6 1.6 0 1 0-3.2 0V20.5H4.794A.794.794 0 0 1 4 19.706v-8.319c0-.682.293-1.331.803-1.784l6.67-5.903a.794.794 0 0 1 1.053 0Z" fill="url(#a)"/></g></svg>