<?xml version="1.0" standalone="no"?><!DOCTYPE svg PUBLIC "-//W3C//DTD SVG 1.1//EN" "http://www.w3.org/Graphics/SVG/1.1/DTD/svg11.dtd"><svg t="1650722549262" class="icon" viewBox="0 0 1024 1024" version="1.1" xmlns="http://www.w3.org/2000/svg" p-id="1296" width="24" height="24" xmlns:xlink="http://www.w3.org/1999/xlink"><defs><style type="text/css">@font-face { font-family: feedback-iconfont; src: url("//at.alicdn.com/t/font_1031158_u69w8yhxdu.woff2?t=1630033759944") format("woff2"), url("//at.alicdn.com/t/font_1031158_u69w8yhxdu.woff?t=1630033759944") format("woff"), url("//at.alicdn.com/t/font_1031158_u69w8yhxdu.ttf?t=1630033759944") format("truetype"); }
</style></defs><path d="M229.5 757.9v-0.1c-56.1-0.1-101.4-45.4-101.5-101.4v-254h-20.7c-28.3 0-43.3 23-43.3 51.4v298c0 28.4 24.5 58.6 52.8 58.6h46.8l-22.2 82.4s-2.2 4.6 2.2 5.1c5.6 0.7 16.8-5.2 16.8-5.2L318 810.4h267.1c13.7 0 26.1 2.7 35.3-6l-83.7-46.5H229.5z" p-id="1297" fill="#3d3d3d"></path><path d="M862.4 126H263.6c-54 0.1-97.6 43.7-97.7 97.6v399.1c0.1 54 43.7 97.6 97.7 97.7H572l195.9 109c4.9 2.7 10.2 4.1 15.6 4.1 6.5 0 13-2 18.6-6 10.1-7.2 15.1-19.5 13-31.7l-13.2-75.4h60.5c53.8 0 97.6-43.6 97.6-97.6V223.6c0-53.9-43.7-97.6-97.6-97.6z m0 530.3h-98.7c-9.5 0-18.5 4.2-24.6 11.5s-8.7 16.8-7.1 26.2l8.2 46.7-144.4-80.3c-4.8-2.6-10.2-4.1-15.6-4.1H263.6c-18.6 0-33.4-14.9-33.4-33.4V223.6c0-18.5 14.9-33.4 33.4-33.4h598.7c18.4 0 33.4 14.9 33.4 33.4v399.3h0.1c0 18.5-15 33.4-33.4 33.4z" p-id="1298" fill="#3d3d3d"></path><path d="M378.4 419.3m-48.6 0a48.6 48.6 0 1 0 97.2 0 48.6 48.6 0 1 0-97.2 0Z" p-id="1299" fill="#3d3d3d"></path><path d="M567.4 419.3m-48.6 0a48.6 48.6 0 1 0 97.2 0 48.6 48.6 0 1 0-97.2 0Z" p-id="1300" fill="#3d3d3d"></path><path d="M756.4 419.3m-48.6 0a48.6 48.6 0 1 0 97.2 0 48.6 48.6 0 1 0-97.2 0Z" p-id="1301" fill="#3d3d3d"></path></svg>