<svg width="24" height="24" viewBox="0 0 24 24" fill="none" xmlns="http://www.w3.org/2000/svg">
<path fill-rule="evenodd" clip-rule="evenodd" d="M17 6.375C14.6528 6.375 12.75 8.27779 12.75 10.625V12.3852L14.255 10.8802L15.3156 11.9409L12.5301 14.7264L11.9998 15.2567L11.4694 14.7264L8.68391 11.9409L9.74457 10.8802L11.25 12.3856V10.625C11.25 7.44936 13.8244 4.875 17 4.875H20V6.375H17ZM5 5.625H9V7.125H5.5V18.125H18.5V11.625H20V18.625C20 19.1773 19.5523 19.625 19 19.625H5C4.44772 19.625 4 19.1773 4 18.625V6.625C4 6.07272 4.44772 5.625 5 5.625Z" fill="#454D5A"/>
<path fill-rule="evenodd" clip-rule="evenodd" d="M17 6.375C14.6528 6.375 12.75 8.27779 12.75 10.625V12.3852L14.255 10.8802L15.3156 11.9409L12.5301 14.7264L11.9998 15.2567L11.4694 14.7264L8.68391 11.9409L9.74457 10.8802L11.25 12.3856V10.625C11.25 7.44936 13.8244 4.875 17 4.875H20V6.375H17ZM5 5.625H9V7.125H5.5V18.125H18.5V11.625H20V18.625C20 19.1773 19.5523 19.625 19 19.625H5C4.44772 19.625 4 19.1773 4 18.625V6.625C4 6.07272 4.44772 5.625 5 5.625Z" fill="url(#paint0_linear_2786_3873)"/>
<defs>
<linearGradient id="paint0_linear_2786_3873" x1="12" y1="-2.5" x2="-2.70133" y2="13.4472" gradientUnits="userSpaceOnUse">
<stop stop-color="#81868F"/>
<stop offset="1" stop-color="#464D5A"/>
</linearGradient>
</defs>
</svg>
